<svg xmlns="http://www.w3.org/2000/svg" width="56" height="56" viewBox="0 0 56 56">
    <defs>
        <clipPath id="9osz23zy7a">
            <path data-name="Rectangle 58" transform="translate(1712 274)" style="stroke:#939393;fill:#56b26e" d="M0 0h24v24H0z"/>
        </clipPath>
    </defs>
    <g data-name="Group 3028" transform="translate(-1696 -258)">
        <circle data-name="Ellipse 7" cx="28" cy="28" r="28" transform="translate(1696 258)" style="fill:#e4f7ea"/>
        <g transform="translate(1712 273.5)" data-name="Mask Group 230" style="clip-path:url(#9osz23zy7a)">
            <path data-name="Path 3131" d="M11.706 12H3.75A3.754 3.754 0 0 0 0 15.75v3.5a.75.75 0 0 0 .75.75h9.156a7.945 7.945 0 0 1 1.8-8z" style="fill:#56b26e"/>
            <path data-name="Path 3132" d="M17.5 11a6.5 6.5 0 1 0 6.5 6.5 6.508 6.508 0 0 0-6.5-6.5zm-.125 5.75h.25a1.87 1.87 0 0 1 .625 3.635v.865a.75.75 0 0 1-1.5 0v-.75h-.5a.75.75 0 0 1 0-1.5h1.375a.375.375 0 0 0 0-.75h-.25a1.87 1.87 0 0 1-.625-3.635v-.865a.75.75 0 0 1 1.5 0v.75h.5a.75.75 0 0 1 0 1.5h-1.375a.375.375 0 0 0 0 .75z" style="fill:#56b26e"/>
            <circle data-name="Ellipse 369" cx="4.5" cy="4.5" r="4.5" transform="translate(3.497 1)" style="fill:#56b26e"/>
        </g>
    </g>
</svg>
