<svg xmlns="http://www.w3.org/2000/svg" width="56" height="56" viewBox="0 0 56 56">
    <defs>
        <clipPath id="yj07u56z9a">
            <path data-name="Rectangle 57" transform="translate(1481 274)" style="stroke:#939393;fill:#4e8ff7" d="M0 0h24v24H0z"/>
        </clipPath>
    </defs>
    <g data-name="Group 3027" transform="translate(-1465 -258)">
        <circle data-name="Ellipse 4" cx="28" cy="28" r="28" transform="translate(1465 258)" style="fill:#e2f4fd"/>
        <g data-name="Mask Group 223" style="clip-path:url(#yj07u56z9a)">
            <g data-name="Group 2763">
                <g data-name="Group 2762">
                    <path data-name="Path 3114" d="M10.962 15.264a3.319 3.319 0 0 1-1.471-.809.837.837 0 0 0-1.183 0l-.064.064a.836.836 0 0 0 .009 1.193 5.354 5.354 0 0 0 2.76 1.369l.1.017v.79a.837.837 0 0 0 .837.837h.095a.837.837 0 0 0 .836-.837v-.808l.1-.019c1.73-.329 2.762-1.41 2.762-2.891.015-2.013-1.476-2.748-2.776-3.163l-.085-.027V8.268l.148.032a3.338 3.338 0 0 1 .99.371.836.836 0 0 0 1.14-.271l.042-.068a.836.836 0 0 0-.276-1.159 5.413 5.413 0 0 0-1.94-.671l-.1-.016v-.6a.837.837 0 0 0-.836-.837h-.095a.837.837 0 0 0-.837.837v.641l-.1.02A2.784 2.784 0 0 0 8.465 9.23c0 1.453.84 2.444 2.568 3.029l.083.028V15.3zm1.921-2.412.171.075c.678.3.928.631.923 1.232 0 .5-.314.858-.934 1.062l-.16.052v-2.421zm-1.947-2.558a1.093 1.093 0 0 1-.7-1.064c0-.376.242-.656.719-.832l.164-.06v2.052z" style="fill:#4e8ff7" transform="translate(1481 274)"/>
                    <path data-name="Path 3115" d="M23.707 4.613a.781.781 0 0 0-.864-.074l-1.643.905a11.128 11.128 0 0 0-20.457 6.07 1.216 1.216 0 1 0 2.433 0 8.7 8.7 0 0 1 15.886-4.893l-1.539.848a.781.781 0 0 0 .16 1.434l4.125 1.2a.781.781 0 0 0 .967-.533l1.2-4.125a.781.781 0 0 0-.268-.832z" style="fill:#4e8ff7" transform="translate(1481 274)"/>
                    <path data-name="Path 3116" d="M22.041 11.27a1.216 1.216 0 0 0-1.216 1.216 8.7 8.7 0 0 1-15.887 4.893l1.539-.848a.781.781 0 0 0-.159-1.431l-4.125-1.2a.781.781 0 0 0-.967.533L.031 18.56a.781.781 0 0 0 1.127.9l1.642-.904a11.128 11.128 0 0 0 20.456-6.07 1.216 1.216 0 0 0-1.215-1.216z" style="fill:#4e8ff7" transform="translate(1481 274)"/>
                </g>
            </g>
        </g>
    </g>
</svg>
