<svg xmlns="http://www.w3.org/2000/svg" width="16" height="16" viewBox="0 0 16 16">
    <defs>
        <clipPath id="riol8mdy9a">
            <path data-name="Rectangle 2634" transform="translate(634 298)" style="fill:#fff;stroke:#939393" d="M0 0h16v16H0z"/>
        </clipPath>
    </defs>
    <g data-name="Mask Group 215" transform="translate(-634 -298)" style="clip-path:url(#riol8mdy9a)">
        <g data-name="Group 2755">
            <path data-name="Path 3104" d="M15.375 0H12.25a.625.625 0 0 0 0 1.25h1.616l-4.2 4.2a5.945 5.945 0 1 0 .884.884l4.2-4.2V3.75a.625.625 0 0 0 1.25 0V.625A.626.626 0 0 0 15.375 0zm-4.75 10.063a4.688 4.688 0 1 1-4.687-4.688 4.693 4.693 0 0 1 4.687 4.688z" style="fill:#333" transform="translate(634 298)"/>
        </g>
    </g>
</svg>
