<svg xmlns="http://www.w3.org/2000/svg" width="16" height="16" viewBox="0 0 16 16">
    <defs>
        <clipPath id="ca41p0k2ta">
            <path data-name="Rectangle 2948" transform="translate(674 372)" style="stroke:#939393;fill:#939393" d="M0 0h16v16H0z"/>
        </clipPath>
    </defs>
    <g data-name="Mask Group 247" transform="translate(-674 -372)" style="clip-path:url(#ca41p0k2ta)">
        <g data-name="Group 3066">
            <g data-name="Group 3065">
                <path data-name="Path 3305" d="M13.955 7.293A.5.5 0 0 0 13.5 7h-2V.5A.5.5 0 0 0 11 0H9a.5.5 0 0 0-.5.5V7h-2a.5.5 0 0 0-.376.829l3.5 4a.5.5 0 0 0 .752 0l3.5-4a.5.5 0 0 0 .079-.536z" transform="translate(672 372)" style="fill:#939393"/>
            </g>
        </g>
        <g data-name="Group 3068">
            <g data-name="Group 3067">
                <path data-name="Path 3306" d="M13.75 16.5v3h-11v-3h-2v4a1 1 0 0 0 1 1h13a1 1 0 0 0 1-1v-4z" transform="translate(673.75 366.5)" style="fill:#939393"/>
            </g>
        </g>
    </g>
</svg>
