<svg xmlns="http://www.w3.org/2000/svg" width="80" height="80" viewBox="0 0 80 80">
    <defs>
        <clipPath id="cnexmxn6pa">
            <path data-name="Rectangle 2427" transform="translate(-3703 13195)" style="stroke:#707070;fill:#ffa0a9" d="M0 0h80v80H0z"/>
        </clipPath>
    </defs>
    <g data-name="Mask Group 176" transform="translate(3703 -13195)" style="clip-path:url(#cnexmxn6pa)">
        <g data-name="Group 2502">
            <g data-name="Group 2501">
                <path data-name="Path 2899" d="M78.969 63.5 46.155 9.078a7.187 7.187 0 0 0-12.31 0L1.03 63.5a7.187 7.187 0 0 0 6.155 10.9h65.63a7.187 7.187 0 0 0 6.155-10.9zm-4.432 4.684a1.982 1.982 0 0 1-1.723 1.006H7.185a1.979 1.979 0 0 1-1.694-3l32.815-54.422a1.978 1.978 0 0 1 3.389 0l32.814 54.421a1.981 1.981 0 0 1 .028 1.994z" style="fill:#ffa0a9" transform="translate(-3703 13195)"/>
            </g>
        </g>
        <g data-name="Group 2504">
            <g data-name="Group 2503">
                <path data-name="Path 2900" d="M40.024 27.032c-1.981 0-3.528 1.063-3.528 2.948 0 5.75.676 14.013.676 19.764 0 1.5 1.305 2.126 2.851 2.126 1.16 0 2.8-.628 2.8-2.126 0-5.75.676-14.013.676-19.764.001-1.88-1.59-2.948-3.475-2.948z" style="fill:#ffa0a9" transform="translate(-3703 13195)"/>
            </g>
        </g>
        <g data-name="Group 2506">
            <g data-name="Group 2505">
                <path data-name="Path 2901" d="M40.073 55.2a3.721 3.721 0 0 0 0 7.442 3.721 3.721 0 0 0 0-7.442z" style="fill:#ffa0a9" transform="translate(-3703 13195)"/>
            </g>
        </g>
    </g>
</svg>
